# xmcd
#
# Track frame offsets: 
#        150
#        26475
#        55652
#        75605
#        98195
#        132892
#        165887
#        208258
#
# Disc length: 4440 seconds
#
# Revision: 0
# Processed by: cddbd v1.5.1PL2 Copyright (c) Steve Scherf et al.
# Submitted via: ExactAudioCopy v0.95b4
#
DISCID=5c115608
DTITLE=Dzem - Lunatycy czyli tzw. przeboje calkiem live
DYEAR=1986
DGENRE=Blues
TTITLE0=Wokol sami lunatycy
TTITLE1=Zloty Paw
TTITLE2=Kim jestem - jestem sobie
TTITLE3=Dzien, w ktorym peklo niebo
TTITLE4=Jesiony
TTITLE5=Skazany na bluesa
TTITLE6=Nieudany skok
TTITLE7=Data
EXTD=
EXTT0=
EXTT1=
EXTT2=
EXTT3=
EXTT4=
EXTT5=
EXTT6=
EXTT7=
PLAYORDER=
